<?xml version="1.0" encoding="UTF-8"?><svg xmlns="http://www.w3.org/2000/svg" viewBox="0 0 300.5 300.5"><defs><style>.e,.f{stroke:#000;stroke-miterlimit:10;}.f{stroke-width:3px;}.f,.g{fill:none;}</style></defs><g id="a"><rect class="g" width="300.5" height="300.5"/></g><g id="b"><g id="c"><path class="f" d="m140.3,136.98h-11.68c-.59,0-1.06-.21-1.42-.62-.35-.41-.53-.91-.53-1.5,0-.71.65-1.47,1.95-2.3h58.07c.59,0,1.09.21,1.5.62.41.41.62.92.62,1.5,0,.71-.21,1.27-.62,1.68-.42.41-.92.62-1.5.62h-9.56v102.58c0,13.93-4.34,25.26-13.01,33.99-8.67,8.74-19.86,13.1-33.55,13.1-12.16,0-22.07-3.98-29.74-11.95-7.67-7.97-11.51-18.79-11.51-32.49,0-11.68,2.04-20.12,6.11-25.32,4.07-5.19,8.76-7.79,14.07-7.79,4.37,0,8.2,2.01,11.51,6.02,3.3,4.01,4.96,9.8,4.96,17.35s-1.57,12.66-4.69,16.38c-3.13,3.72-6.82,5.58-11.06,5.58-1.65,0-3.63-.35-5.93-1.06s-4.04-1.06-5.22-1.06c-.83,0-1.48.3-1.95.89-.71.83-1.06,1.95-1.06,3.36,0,5.78,2.83,11.42,8.5,16.91,5.67,5.49,11.57,8.23,17.7,8.23,5.07,0,9.09-1.83,12.04-5.49,4.01-5.07,6.02-12.1,6.02-21.07v-118.16Z"/></g></g><g id="d"><path class="f" d="m211.96,62.18c0-12.93-8.25-23.96-19.88-28.43-4.8-11.28-16.52-19.25-30.25-19.25-14.83,0-27.32,9.3-31.26,22.01-.02,0-.04,0-.07,0-15.92,0-28.82,12.59-28.82,28.12s12.9,28.12,28.82,28.12c.42,0,.83-.04,1.25-.06v28.33h53.08v-28.58c15.31-2.01,27.13-14.77,27.13-30.26Z"/><line class="e" x1="130.5" y1="103.48" x2="185.64" y2="103.48"/><line class="e" x1="143.04" y1="88.44" x2="143.04" y2="103.48"/><line class="e" x1="158.07" y1="88.44" x2="158.07" y2="103.48"/><line class="e" x1="173.11" y1="88.44" x2="173.11" y2="103.48"/></g></svg>